<svg xmlns="http://www.w3.org/2000/svg" height="24" viewBox="0 -960 960 960" width="24"><path d="M561.539-155.617v-61.999q86.538-27.538 139.422-100Q753.846-390.077 753.846-481q0-90.923-52.885-163.384-52.884-72.462-139.422-100v-61.999Q673.23-776.46 743.537-686.46q70.307 89.999 70.307 205.46 0 115.461-70.307 205.46-70.307 90-181.998 119.923ZM146.156-380.001v-199.998h148.46l171.537-171.536v543.07L294.616-380.001h-148.46Zm415.383 46.154v-294.306q40.461 22 62.537 61.961Q646.153-526.23 646.153-480q0 45.615-22.269 84.884t-62.345 61.269ZM406.154-606l-86 86h-114v80h114l86 86v-252Zm-100 126Z"/></svg>